# File created by Blade
# Date/Time:  Wed Jan 21 19:09:01 2015
#---------------------------------------------------------
:version 1.10
:name HOM
:units
  mass 1.0
  length 1.000000
  angle deg
:documentation
     Acclaim Skeleton File
:root
   axis xyz
   order TX TY TZ RX RY RZ
   position 0.000000 0.000000 0.000000
   orientation 0 0 0
:bonedata
   begin
      id 1
      name RightUpLeg_dum
      direction -1.000000 0.000000 0.000000
      length 3.693983
      axis 0.0 0.0 0.0 xyz
   end
   begin
      id 2
      name LeftUpLeg_dum
      direction 1.000000 0.000000 0.000000
      length 3.693983
      axis 0.0 0.0 0.0 xyz
   end
   begin
      id 3
      name Spine_dum
      direction 0.000000 1.000000 0.000000
      length 2.392956
      axis 0.0 0.0 0.0 xyz
   end
   begin
      id 4
      name RightUpLeg
      direction 0.000000 -1.000000 0.000000
      length 15.795667
      axis 0.0 0.0 0.0 xyz
      dof rx ry rz
   end
   begin
      id 5
      name RightLeg
      direction 0.000000 -1.000000 0.000000
      length 14.766989
      axis 0.0 0.0 0.0 xyz
      dof rx ry rz
   end
   begin
      id 6
      name RightFoot
      direction 0.000000 -0.258819 0.965926
      length 4.962790
      axis 15.0 0.0 0.0 xyz
      dof rx ry rz
   end
   begin
      id 7
      name RightToeBase
      direction 0.000000 0.000000 1.000000
      length 2.952750
      axis 0.0 0.0 0.0 xyz
      dof rx ry rz
   end
   begin
      id 8
      name LeftUpLeg
      direction 0.000000 -1.000000 0.000000
      length 15.795667
      axis 0.0 0.0 0.0 xyz
      dof rx ry rz
   end
   begin
      id 9
      name LeftLeg
      direction 0.000000 -1.000000 0.000000
      length 14.766989
      axis 0.0 0.0 0.0 xyz
      dof rx ry rz
   end
   begin
      id 10
      name LeftFoot
      direction 0.000000 -0.258819 0.965926
      length 4.962790
      axis 15.0 0.0 0.0 xyz
      dof rx ry rz
   end
   begin
      id 11
      name LeftToeBase
      direction 0.000000 0.000000 1.000000
      length 2.952750
      axis 0.0 0.0 0.0 xyz
      dof rx ry rz
   end
   begin
      id 12
      name Spine
      direction 0.000000 1.000000 0.000000
      length 0.000000
      axis 0.0 0.0 0.0 xyz
      dof rx ry rz
   end
   begin
      id 13
      name Spine_dum1
      direction 0.000000 1.000000 0.000000
      length 13.207411
      axis 0.0 0.0 0.0 xyz
   end
   begin
      id 14
      name Spine_dum2
      direction 0.000000 1.000000 0.000000
      length 13.207411
      axis 0.0 0.0 0.0 xyz
   end
   begin
      id 15
      name Spine_dum3
      direction 0.000000 1.000000 0.000000
      length 19.250100
      axis 0.0 0.0 0.0 xyz
   end
   begin
      id 16
      name RightShoulder
      direction -1.000000 0.000000 0.000000
      length 8.140465
      axis 0.0 0.0 90.0 xyz
      dof rx ry rz
   end
   begin
      id 17
      name RightArm
      direction -1.000000 0.000000 0.000000
      length 10.649840
      axis 0.0 0.0 90.0 xyz
      dof rx ry rz
   end
   begin
      id 18
      name RightForeArm
      direction -1.000000 0.000000 0.000000
      length 8.304624
      axis 0.0 0.0 90.0 xyz
      dof ry rz rx
   end
   begin
      id 19
      name RightHand
      direction -1.000000 0.000000 0.000000
      length 0.000000
      axis 0.0 0.0 90.0 xyz
      dof rx ry rz
   end
   begin
      id 20
      name RightHand_dum1
      direction -1.000000 0.000000 0.000000
      length 3.937000
      axis 0.0 0.0 90.0 xyz
   end
   begin
      id 21
      name RightHand_dum2
      direction 0.000000 0.000000 0.000000
      length 0.000000
      axis 0.0 0.0 90.0 xyz
   end
   begin
      id 22
      name RightHandThumb1
      direction 0.000000 0.000000 1.000000
      length 3.937000
      axis 0.0 0.0 90.0 xyz
      dof rx rz ry
   end
   begin
      id 23
      name LeftShoulder
      direction 1.000000 0.000000 0.000000
      length 8.140465
      axis 0.0 0.0 -90.0 xyz
      dof rx ry rz
   end
   begin
      id 24
      name LeftArm
      direction 1.000000 0.000000 0.000000
      length 10.649840
      axis 0.0 0.0 -90.0 xyz
      dof rx ry rz
   end
   begin
      id 25
      name LeftForeArm
      direction 1.000000 0.000000 0.000000
      length 8.304624
      axis 0.0 0.0 -90.0 xyz
      dof ry rz rx
   end
   begin
      id 26
      name LeftHand
      direction 1.000000 0.000000 0.000000
      length 0.000000
      axis 0.0 0.0 -90.0 xyz
      dof rx ry rz
   end
   begin
      id 27
      name LeftHand_dum1
      direction 1.000000 0.000000 0.000000
      length 3.937000
      axis 0.0 0.0 -90.0 xyz
   end
   begin
      id 28
      name LeftHand_dum2
      direction 0.000000 0.000000 0.000000
      length 0.000000
      axis 0.0 0.0 -90.0 xyz
   end
   begin
      id 29
      name LeftHandThumb1
      direction 0.000000 0.000000 1.000000
      length 3.937000
      axis 0.0 0.0 -90.0 xyz
      dof rx rz ry
   end
   begin
      id 30
      name Head
      direction 0.000000 1.000000 0.000000
      length 4.527550
      axis 0.0 0.0 0.0 xyz
      dof rx ry rz
   end
:hierarchy
   begin
      root RightUpLeg_dum LeftUpLeg_dum Spine_dum
      RightUpLeg_dum RightUpLeg
      LeftUpLeg_dum LeftUpLeg
      Spine_dum Spine
      RightUpLeg RightLeg
      RightLeg RightFoot
      RightFoot RightToeBase
      LeftUpLeg LeftLeg
      LeftLeg LeftFoot
      LeftFoot LeftToeBase
      Spine Spine_dum1 Spine_dum2 Spine_dum3
      Spine_dum1 RightShoulder
      Spine_dum2 LeftShoulder
      Spine_dum3 Head
      RightShoulder RightArm
      RightArm RightForeArm
      RightForeArm RightHand
      RightHand RightHand_dum1 RightHand_dum2
      RightHand_dum2 RightHandThumb1
      LeftShoulder LeftArm
      LeftArm LeftForeArm
      LeftForeArm LeftHand
      LeftHand LeftHand_dum1 LeftHand_dum2
      LeftHand_dum2 LeftHandThumb1
   end

# File created by Blade
# Date/Time:  Wed Jan 21 19:08:52 2015
# Frame Rate: 120.000 fps
#------------------------------------------------------
:FULLY-SPECIFIED
:DEGREES
1314
root -8.688636 32.532753 -8.555103 40.761844 16.693606 1.936903
RightUpLeg -38.249578 -9.126533 10.742249
RightLeg 6.954510 -0.000000 -0.000000
RightFoot -18.441956 -5.643544 16.829294
RightToeBase 16.459343 -0.000000 -0.000000
LeftUpLeg -45.384858 -1.722973 4.992134
LeftLeg 15.087120 -0.000000 -0.000000
LeftFoot -11.774729 -5.433092 -7.413543
LeftToeBase 4.723712 -0.000000 -0.000000
Spine -41.142287 -3.325614 6.539069
RightShoulder -17.460708 3.840314 -32.419506
RightArm -7.416182 -21.003437 93.726402
RightForeArm 21.314682 -0.000000 7.186555
RightHand 13.397307 0.000000 -3.987261
RightHandThumb1 -24.326973 -0.000000 -32.862282
LeftShoulder -8.325820 9.817689 23.593973
LeftArm 13.480892 21.480345 -89.095648
LeftForeArm 5.515746 -0.000000 9.171644
LeftHand -18.809396 -0.000000 3.130257
LeftHandThumb1 -26.253704 0.000000 33.147579
Head 13.070210 2.078565 1.680440
1315
root -8.682836 32.529149 -8.568937 40.727366 16.794282 1.921648
RightUpLeg -38.304081 -9.131809 10.752844
RightLeg 7.099223 -0.000000 -0.000000
RightFoot -18.538355 -5.701240 16.853998
RightToeBase 16.473565 -0.000000 -0.000000
LeftUpLeg -45.699460 -1.990620 5.197536
LeftLeg 15.695234 -0.000000 -0.000000
LeftFoot -11.903423 -5.207817 -7.498597
LeftToeBase 4.544593 -0.000000 -0.000000
Spine -41.056968 -3.288323 6.631908
RightShoulder -17.458196 3.878232 -32.409966
RightArm -7.359788 -21.076766 93.690978
RightForeArm 21.364288 -0.000000 7.134258
RightHand 13.288253 -0.000000 -3.871101
RightHandThumb1 -24.326973 -0.000000 -32.862282
LeftShoulder -8.311905 9.826447 23.619544
LeftArm 13.472875 21.350187 -89.132900
LeftForeArm 5.609488 -0.000000 9.371918
LeftHand -18.871207 -0.000000 3.123111
LeftHandThumb1 -26.253704 0.000000 33.147579
Head 13.011888 2.106663 1.596073
1316
root -8.678044 32.524093 -8.582586 40.682888 16.911514 1.879105
RightUpLeg -38.355537 -9.145477 10.803919
RightLeg 7.238449 -0.000000 -0.000000
RightFoot -18.617183 -5.762383 16.837763
RightToeBase 16.475581 -0.000000 -0.000000
LeftUpLeg -46.053510 -2.335421 5.503409
LeftLeg 16.379458 -0.000000 -0.000000
LeftFoot -12.089637 -4.898412 -7.620581
LeftToeBase 4.465470 -0.000000 -0.000000
Spine -40.965981 -3.250189 6.755088
RightShoulder -17.466147 3.907027 -32.400839
RightArm -7.290068 -21.169693 93.654173
RightForeArm 21.575031 -0.000000 7.069480
RightHand 13.183070 0.000000 -3.630730
RightHandThumb1 -24.326973 -0.000000 -32.862282
LeftShoulder -8.285373 9.807348 23.660549
LeftArm 13.420608 21.255814 -89.193536
LeftForeArm 5.763689 -0.000000 9.570706
LeftHand -18.970500 0.000000 3.303527
LeftHandThumb1 -26.253704 0.000000 33.147579
Head 12.957972 2.147960 1.539564
1317
root -8.671652 32.519457 -8.598229 40.643100 17.039658 1.855789
RightUpLeg -38.407503 -9.149903 10.821858
RightLeg 7.385356 -0.000000 -0.000000
RightFoot -18.725468 -5.834353 16.821284
RightToeBase 16.488824 -0.000000 -0.000000
LeftUpLeg -46.443453 -2.652232 5.759890
LeftLeg 17.120110 -0.000000 -0.000000
LeftFoot -12.243159 -4.648417 -7.756163
LeftToeBase 4.313722 -0.000000 -0.000000
Spine -40.870070 -3.238716 6.882909
RightShoulder -17.449186 3.946972 -32.389201
RightArm -7.247045 -21.211084 93.617209
RightForeArm 21.886985 -0.000000 7.052573
RightHand 12.892469 -0.000000 -3.281422
RightHandThumb1 -24.326973 -0.000000 -32.862282
LeftShoulder -8.279448 9.817187 23.686270
LeftArm 13.425359 21.174346 -89.233803
LeftForeArm 5.998784 -0.000000 9.708042
LeftHand -19.007453 -0.000000 3.338903
LeftHandThumb1 -26.253704 0.000000 33.147579
Head 12.907781 2.206573 1.475999
1318
root -8.670484 32.514600 -8.613940 40.617912 17.179680 1.789078
RightUpLeg -38.380899 -8.973889 10.774559
RightLeg 7.358563 -0.000000 -0.000000
RightFoot -18.785805 -6.061520 16.932501
RightToeBase 16.482458 -0.000000 -0.000000
LeftUpLeg -46.924230 -2.978874 6.088672
LeftLeg 17.981617 -0.000000 -0.000000
LeftFoot -12.421434 -4.363742 -7.947349
LeftToeBase 4.262339 -0.000000 -0.000000
Spine -40.792949 -3.219024 7.035120
RightShoulder -17.450643 3.980697 -32.361080
RightArm -7.190953 -21.208136 93.553879
RightForeArm 21.935876 -0.000000 7.009238
RightHand 12.700865 -0.000000 -3.176273
RightHandThumb1 -24.326973 -0.000000 -32.862282
LeftShoulder -8.268600 9.826321 23.738465
LeftArm 13.421817 21.104581 -89.270364
LeftForeArm 6.158104 -0.000000 9.864410
LeftHand -19.022596 0.000000 3.362981
LeftHandThumb1 -26.253704 0.000000 33.147579
Head 12.838401 2.258138 1.440269
1319
root -8.666256 32.509163 -8.628371 40.577162 17.325884 1.728449
RightUpLeg -38.428840 -8.972404 10.840356
RightLeg 7.477577 -0.000000 -0.000000
RightFoot -18.875997 -6.131546 16.983859
RightToeBase 16.526746 -0.000000 -0.000000
LeftUpLeg -47.394577 -3.299708 6.406707
LeftLeg 18.853696 -0.000000 -0.000000
LeftFoot -12.577728 -4.137616 -8.161520
LeftToeBase 4.070175 -0.000000 -0.000000
Spine -40.704162 -3.197501 7.183633
RightShoulder -17.468625 4.026555 -32.348984
RightArm -7.168536 -21.252236 93.510929
RightForeArm 22.176462 -0.000000 6.974030
RightHand 12.482759 -0.000000 -2.863988
RightHandThumb1 -24.326973 -0.000000 -32.862282
LeftShoulder -8.248771 9.825227 23.786537
LeftArm 13.417690 21.044432 -89.303457
LeftForeArm 6.164920 -0.000000 10.012551
LeftHand -19.042071 -0.000000 3.432638
LeftHandThumb1 -26.253704 0.000000 33.147579
Head 12.769418 2.280593 1.389596
1320
root -8.659840 32.504341 -8.643744 40.551641 17.486831 1.702138
RightUpLeg -38.516968 -9.052519 10.924868
RightLeg 7.650923 -0.000000 -0.000000
RightFoot -18.969244 -6.164475 16.948672
RightToeBase 16.525829 -0.000000 -0.000000
LeftUpLeg -47.907347 -3.630566 6.670858
LeftLeg 19.789128 -0.000000 -0.000000
LeftFoot -12.811287 -3.765688 -8.120272
LeftToeBase 4.200164 -0.000000 -0.000000
Spine -40.623001 -3.215105 7.328518
RightShoulder -17.482394 4.054616 -32.333375
RightArm -7.129554 -21.250183 93.455504
RightForeArm 22.391893 -0.000000 6.963795
RightHand 12.256961 -0.000000 -2.616665
RightHandThumb1 -24.326973 -0.000000 -32.862282
LeftShoulder -8.229008 9.805401 23.824837
LeftArm 13.379415 20.977833 -89.340639
LeftForeArm 6.183993 -0.000000 10.171399
LeftHand -19.108711 -0.000000 3.575881
LeftHandThumb1 -26.253704 0.000000 33.147579
Head 12.703137 2.306870 1.332038
1321
root -8.652267 32.499973 -8.658938 40.536224 17.639427 1.675452
RightUpLeg -38.583868 -9.063744 10.953293
RightLeg 7.777129 -0.000000 -0.000000
RightFoot -19.039499 -6.218230 17.006318
RightToeBase 16.431530 -0.000000 -0.000000
LeftUpLeg -48.451203 -3.937440 6.903264
LeftLeg 20.760095 -0.000000 -0.000000
LeftFoot -12.938855 -3.466199 -8.247636
LeftToeBase 4.080149 -0.000000 -0.000000
Spine -40.549422 -3.223233 7.465915
RightShoulder -17.491957 4.096276 -32.316301
RightArm -7.118748 -21.206545 93.408953
RightForeArm 22.801295 -0.000000 6.944179
RightHand 12.011963 -0.000000 -2.122073
RightHandThumb1 -24.326973 -0.000000 -32.862282
LeftShoulder -8.212250 9.798267 23.860577
LeftArm 13.343381 20.942464 -89.389664
LeftForeArm 6.402842 -0.000000 10.338253
LeftHand -19.211063 -0.000000 3.757600
LeftHandThumb1 -26.253704 0.000000 33.147579
Head 12.646726 2.342201 1.273315
1322
root -8.645215 32.495985 -8.674418 40.533144 17.804153 1.657870
RightUpLeg -38.664099 -9.098753 11.006798
RightLeg 7.894107 -0.000000 -0.000000
RightFoot -19.135232 -6.324304 17.042898
RightToeBase 16.421090 -0.000000 -0.000000
LeftUpLeg -49.040286 -4.257650 7.129582
LeftLeg 21.795428 -0.000000 -0.000000
LeftFoot -13.025854 -3.151415 -8.419922
LeftToeBase 3.896034 -0.000000 -0.000000
Spine -40.481351 -3.246558 7.600368
RightShoulder -17.522177 4.140246 -32.308418
RightArm -7.104620 -21.126429 93.362905
RightForeArm 23.027022 -0.000000 6.909520
RightHand 11.844780 -0.000000 -2.032140
RightHandThumb1 -24.326973 -0.000000 -32.862282
LeftShoulder -8.206002 9.789928 23.886866
LeftArm 13.311852 20.884688 -89.410499
LeftForeArm 6.539637 -0.000000 10.518496
LeftHand -19.169689 -0.000000 3.705598
LeftHandThumb1 -26.253704 0.000000 33.147579
Head 12.581559 2.355455 1.224279
1323
root -8.635207 32.493332 -8.690972 40.535555 17.986067 1.655497
RightUpLeg -38.737626 -9.158800 11.043722
RightLeg 8.000587 -0.000000 -0.000000
RightFoot -19.268705 -6.328437 17.204847
RightToeBase 16.551822 -0.000000 -0.000000
LeftUpLeg -49.642562 -4.542795 7.301252
LeftLeg 22.829233 -0.000000 -0.000000
LeftFoot -13.006339 -2.802946 -8.380122
LeftToeBase 3.433695 -0.000000 -0.000000
Spine -40.413728 -3.291050 7.738459
RightShoulder -17.551862 4.183848 -32.295327
RightArm -7.103128 -21.071147 93.304796
RightForeArm 23.266816 0.000000 6.901354
RightHand 11.560040 0.000000 -1.615384
RightHandThumb1 -24.326973 -0.000000 -32.862282
LeftShoulder -8.202603 9.793341 23.904909
LeftArm 13.279713 20.798160 -89.460199
LeftForeArm 6.924139 -0.000000 10.724974
LeftHand -19.291056 -0.000000 3.707582
LeftHandThumb1 -26.253704 0.000000 33.147579
Head 12.509435 2.367200 1.167727
1324
root -8.625758 32.491453 -8.705525 40.563958 18.176276 1.658862
RightUpLeg -38.836048 -9.235918 11.096014
RightLeg 8.104272 -0.000000 -0.000000
RightFoot -19.295996 -6.429923 17.097945
RightToeBase 16.434331 -0.000000 -0.000000
LeftUpLeg -50.299173 -4.865220 7.515800
LeftLeg 23.938776 -0.000000 -0.000000
LeftFoot -13.155508 -2.664647 -8.785781
LeftToeBase 3.774853 -0.000000 -0.000000
Spine -40.378041 -3.353233 7.872453
RightShoulder -17.588316 4.168830 -32.256793
RightArm -7.036843 -21.043101 93.229374
RightForeArm 23.405249 -0.000000 6.870889
RightHand 11.423158 -0.000000 -1.575782
RightHandThumb1 -24.326973 -0.000000 -32.862282
LeftShoulder -8.206534 9.806039 23.925554
LeftArm 13.264887 20.692457 -89.492853
LeftForeArm 7.030552 -0.000000 10.897693
LeftHand -19.298057 0.000000 3.798783
LeftHandThumb1 -26.253704 0.000000 33.147579
Head 12.442627 2.395555 1.149990
